<svg xmlns="http://www.w3.org/2000/svg" width="256" height="256" viewBox="0 0 100 100"><rect width="100" height="100" rx="20" fill="#0f4c81"></rect><path fill="#fff" d="M61.67 47.44L61.67 47.82Q69.10 49.74 72.37 54.17Q75.64 58.59 75.64 65L75.64 65Q75.64 74.62 68.85 79.62Q62.05 84.62 48.08 84.62L48.08 84.62L24.36 84.62L24.36 77.56L32.05 77.56L32.05 22.44L24.36 22.44L24.36 15.38L47.82 15.38Q61.28 15.38 67.18 19.36Q73.08 23.33 73.08 32.31L73.08 32.31Q73.08 37.82 70.51 41.60Q67.95 45.38 61.67 47.44L61.67 47.44ZM39.74 77.56L48.59 77.56Q57.95 77.56 62.63 74.55Q67.31 71.54 67.31 65L67.31 65Q67.31 58.85 63.27 55.38Q59.23 51.92 50 51.92L50 51.92L39.74 51.92L39.74 77.56ZM39.74 44.87L48.46 44.87Q56.54 44.87 60.64 42.12Q64.74 39.36 64.74 33.21L64.74 33.21Q64.74 27.18 61.03 24.81Q57.31 22.44 47.31 22.44L47.31 22.44L39.74 22.44L39.74 44.87Z"></path></svg>