<svg xmlns="http://www.w3.org/2000/svg" width="256" height="256" viewBox="0 0 100 100"><rect width="100" height="100" rx="20" fill="#ffffff"></rect><path d="M55.39 80.97L22.39 80.97L22.39 75.14L30.97 75.14L30.97 24.87L22.39 24.87L22.39 19.04L53.08 19.04Q63.42 19.04 68.87 22.94Q74.31 26.85 74.31 34.44L74.31 34.44Q74.31 39.50 71.72 43.02Q69.14 46.54 64.96 47.97L64.96 47.97Q69.14 48.96 71.94 51.21Q74.75 53.47 76.18 56.60Q77.61 59.73 77.61 63.48L77.61 63.48Q77.61 67.88 75.52 71.89Q73.43 75.91 68.53 78.44Q63.64 80.97 55.39 80.97L55.39 80.97ZM39.99 51.48L39.99 75.14L53.85 75.14Q61.66 75.14 65.07 71.95Q68.48 68.75 68.48 63.15L68.48 63.15Q68.48 57.98 64.85 54.73Q61.22 51.48 53.52 51.48L53.52 51.48L39.99 51.48ZM39.99 24.87L39.99 45.44L52.53 45.44Q59.35 45.44 62.38 42.58Q65.40 39.72 65.40 34.77L65.40 34.77Q65.40 29.27 61.88 27.07Q58.36 24.87 50.55 24.87L50.55 24.87L39.99 24.87Z" fill="#0f4c81"></path></svg>